<svg xmlns="http://www.w3.org/2000/svg" version="1.1" xmlns:xlink="http://www.w3.org/1999/xlink" xmlns:svgjs="http://svgjs.dev/svgjs" width="2000" height="1324" viewBox="0 0 2000 1324"><g transform="matrix(1,0,0,1,1.1081758370360149,0.536032388663898)"><svg viewBox="0 0 373 247" data-background-color="#111627" preserveAspectRatio="xMidYMid meet" height="1324" width="2000" xmlns="http://www.w3.org/2000/svg" xmlns:xlink="http://www.w3.org/1999/xlink"><g id="tight-bounds" transform="matrix(1,0,0,1,-0.2066747936072204,-0.09999999999999432)"><svg viewBox="0 0 373.41334958721444 247.2" height="247.2" width="373.41334958721444"><g><svg viewBox="0 0 395.52 261.8346240381645" height="247.2" width="373.41334958721444"><g transform="matrix(1,0,0,1,0,158.99324966824545)"><svg viewBox="0 0 395.52 102.84137436991904" height="102.84137436991904" width="395.52"><g id="textblocktransform"><svg viewBox="0 0 395.52 102.84137436991904" height="102.84137436991904" width="395.52" id="textblock"><g><svg viewBox="0 0 395.52 71.44508670520233" height="71.44508670520233" width="395.52"><g transform="matrix(1,0,0,1,0,0)"><svg width="395.52" viewBox="3 -35.05 207.58 37.5" height="71.44508670520233" data-palette-color="#2896bb"><path d="M18.05 0L3 0 3-35.05 15.7-35.05Q17.25-35.05 18.3-33.98 19.35-32.9 19.35-31.45L19.35-31.45 19.35-21.5Q20.35-21.15 21-20.2 21.65-19.25 21.65-18.15L21.65-18.15 21.65-3.65Q21.65-2.1 20.6-1.05 19.55 0 18.05 0L18.05 0ZM7.7-30.4L7.7-21.7 12.85-21.7Q13.6-21.7 14.15-22.25 14.7-22.8 14.7-23.5L14.7-23.5 14.7-28.6Q14.7-29.35 14.15-29.88 13.6-30.4 12.85-30.4L12.85-30.4 7.7-30.4ZM7.7-17.1L7.7-4.65 15.25-4.65Q15.95-4.65 16.48-5.18 17-5.7 17-6.5L17-6.5 17-15.3Q17-16 16.48-16.55 15.95-17.1 15.25-17.1L15.25-17.1 7.7-17.1ZM42.2 0L27.15 0 27.15-35.05 39.85-35.05Q41.4-35.05 42.45-33.98 43.5-32.9 43.5-31.45L43.5-31.45 43.5-21.5Q44.5-21.15 45.15-20.2 45.8-19.25 45.8-18.15L45.8-18.15 45.8-3.65Q45.8-2.1 44.75-1.05 43.7 0 42.2 0L42.2 0ZM31.85-30.4L31.85-21.7 37-21.7Q37.75-21.7 38.3-22.25 38.85-22.8 38.85-23.5L38.85-23.5 38.85-28.6Q38.85-29.35 38.3-29.88 37.75-30.4 37-30.4L37-30.4 31.85-30.4ZM31.85-17.1L31.85-4.65 39.4-4.65Q40.1-4.65 40.62-5.18 41.15-5.7 41.15-6.5L41.15-6.5 41.15-15.3Q41.15-16 40.62-16.55 40.1-17.1 39.4-17.1L39.4-17.1 31.85-17.1ZM76.14 2.45L71.49 2.45 70.49 0 64.49 0Q62.99 0 61.94-1.05 60.89-2.1 60.89-3.6L60.89-3.6 60.89-31.5Q60.89-32.95 61.94-33.98 62.99-35 64.49-35L64.49-35 75.89-35Q77.39-35 78.44-33.98 79.49-32.95 79.49-31.5L79.49-31.5 79.49-3.6Q79.49-2.1 78.44-1.05 77.39 0 75.89 0L75.89 0 75.14 0 76.14 2.45ZM67.39-4.65L67.39-4.65 68.59-4.65 67.44-7.65 72.14-7.65 73.29-4.65Q73.89-4.75 74.34-5.28 74.79-5.8 74.79-6.45L74.79-6.45 74.79-28.65Q74.79-29.35 74.29-29.88 73.79-30.4 72.99-30.4L72.99-30.4 67.39-30.4Q66.59-30.4 66.09-29.88 65.59-29.35 65.59-28.65L65.59-28.65 65.59-6.45Q65.59-5.7 66.09-5.18 66.59-4.65 67.39-4.65ZM87.74 0L83.09 0 83.09-35 98.09-35Q99.54-35 100.59-33.95 101.64-32.9 101.64-31.4L101.64-31.4 101.64-20.65Q101.64-19.15 100.59-18.1 99.54-17.05 98.09-17.05L98.09-17.05 97.04-17.05 101.64 0 97.04 0 92.39-17.05 87.74-17.05 87.74 0ZM87.74-30.35L87.74-21.7 95.24-21.7Q95.94-21.7 96.49-22.23 97.04-22.75 97.04-23.5L97.04-23.5 97.04-28.55Q97.04-29.3 96.49-29.83 95.94-30.35 95.24-30.35L95.24-30.35 87.74-30.35ZM120.69-10.4L106.64-10.4 106.64-15.1 120.69-15.1 120.69-10.4ZM140.74 0L129.38 0Q127.98 0 126.89-1.05 125.78-2.1 125.78-3.6L125.78-3.6 125.78-31.4Q125.78-32.85 126.89-33.93 127.98-35 129.38-35L129.38-35 140.74-35Q142.28-35 143.31-33.93 144.34-32.85 144.34-31.4L144.34-31.4 144.34-24.9 139.69-23.85 139.69-28.55Q139.69-29.25 139.21-29.8 138.74-30.35 137.94-30.35L137.94-30.35 132.24-30.35Q131.53-30.35 130.99-29.8 130.44-29.25 130.44-28.55L130.44-28.55 130.44-6.45Q130.44-5.65 130.99-5.15 131.53-4.65 132.24-4.65L132.24-4.65 137.94-4.65Q138.74-4.65 139.21-5.15 139.69-5.65 139.69-6.45L139.69-6.45 139.69-10.1 144.34-11.2 144.34-3.6Q144.34-2.1 143.31-1.05 142.28 0 140.74 0L140.74 0ZM162.38 0L151.03 0Q149.63 0 148.58-1.05 147.53-2.1 147.53-3.65L147.53-3.65 147.53-31.35Q147.53-32.9 148.58-33.95 149.63-35 151.03-35L151.03-35 162.38-35Q163.98-35 165.01-33.95 166.03-32.9 166.03-31.35L166.03-31.35 166.03-3.65Q166.03-2.1 165.01-1.05 163.98 0 162.38 0L162.38 0ZM153.88-4.6L153.88-4.6 159.53-4.6Q160.38-4.6 160.91-5.15 161.43-5.7 161.43-6.5L161.43-6.5 161.43-28.5Q161.43-29.35 160.91-29.88 160.38-30.4 159.53-30.4L159.53-30.4 153.88-30.4Q153.18-30.4 152.66-29.88 152.13-29.35 152.13-28.5L152.13-28.5 152.13-6.5Q152.13-5.7 152.66-5.15 153.18-4.6 153.88-4.6ZM184.73 0L169.73 0 169.73-35 184.73-35Q186.18-35 187.23-33.95 188.28-32.9 188.28-31.4L188.28-31.4 188.28-3.6Q188.28-2.1 187.23-1.05 186.18 0 184.73 0L184.73 0ZM174.38-30.35L174.38-4.65 181.88-4.65Q182.58-4.65 183.13-5.18 183.68-5.7 183.68-6.45L183.68-6.45 183.68-28.55Q183.68-29.3 183.13-29.83 182.58-30.35 181.88-30.35L181.88-30.35 174.38-30.35ZM210.58 0L191.98 0 191.98-35 210.58-35 210.58-30.4 196.63-30.4 196.63-21.7 205.93-21.7 204.88-17.05 196.63-17.05 196.63-4.65 210.58-4.65 210.58 0Z" opacity="1" transform="matrix(1,0,0,1,0,0)" fill="#ffffff" class="wordmark-text-0" data-fill-palette-color="primary" id="text-0"></path></svg></g></svg></g><g transform="matrix(1,0,0,1,0,88.31155699421967)"><svg viewBox="0 0 395.52 14.529817375699356" height="14.529817375699356" width="395.52"><g transform="matrix(1,0,0,1,0,0)"><svg width="395.52" viewBox="3.65 -34.35 947.21 34.800000000000004" height="14.529817375699356" data-palette-color="#9ad2cb"><path d="M13.2-29.4L13.2-29.4 8.8-29.4 8.8-17.1 13.45-17.1Q16.65-17.1 18.3-18.78 19.95-20.45 19.95-23.25L19.95-23.25Q19.95-29.4 13.2-29.4ZM8.8-12.8L8.8 0 3.65 0 3.65-33.7 13.05-33.7Q18.85-33.7 22-30.88 25.15-28.05 25.15-23.2L25.15-23.2Q25.1-19.65 23.35-17.18 21.6-14.7 18.5-13.6L18.5-13.6 27.3 0 21.15 0 13.25-12.8 8.8-12.8ZM51.5-4.3L51.5 0 32.05 0 32.05-33.7 51.25-33.7 51.25-29.4 37.2-29.4 37.2-19 49.65-19 49.65-14.7 37.2-14.7 37.2-4.3 51.5-4.3ZM84.75-33.7L73.09 0 67 0 55.65-33.7 61.15-33.7 65.45-20.3Q66.84-16 68-12.08 69.15-8.15 69.59-6.4L69.59-6.4 70.09-4.6Q71.7-10.6 74.9-20.3L74.9-20.3 79.25-33.7 84.75-33.7ZM115.34-29.63Q119.49-24.9 119.49-17 119.49-9.1 115.32-4.35 111.14 0.4 104.04 0.4L104.04 0.4Q96.99 0.4 92.77-4.35 88.54-9.1 88.54-17L88.54-17Q88.54-24.85 92.74-29.6 96.94-34.35 103.99-34.35L103.99-34.35Q111.19-34.35 115.34-29.63ZM96.62-26.18Q93.94-22.8 93.94-17 93.94-11.2 96.69-7.8 99.44-4.4 104.04-4.4L104.04-4.4Q108.79-4.4 111.44-7.75 114.09-11.1 114.09-17L114.09-17Q114.09-22.85 111.42-26.2 108.74-29.55 103.99-29.55L103.99-29.55Q99.29-29.55 96.62-26.18ZM144.39-4.55L144.39 0 125.44 0 125.44-33.7 130.59-33.7 130.59-4.55 144.39-4.55ZM174.84-33.7L174.84-12.9Q174.84-6.35 171.44-2.95 168.04 0.45 162.04 0.45L162.04 0.45Q156.14 0.45 152.74-2.88 149.34-6.2 149.34-12.5L149.34-12.5 149.34-33.7 154.49-33.7 154.49-12.55Q154.49-8.25 156.56-6.28 158.64-4.3 162.04-4.3L162.04-4.3Q169.69-4.3 169.69-12.8L169.69-12.8 169.69-33.7 174.84-33.7ZM202.29-33.7L202.29-29.4 193.44-29.4 193.44 0 188.29 0 188.29-29.4 179.49-29.4 179.49-33.7 202.29-33.7ZM212.53-33.7L212.53 0 207.43 0 207.43-33.7 212.53-33.7ZM245.68-29.63Q249.83-24.9 249.83-17 249.83-9.1 245.66-4.35 241.48 0.4 234.38 0.4L234.38 0.4Q227.33 0.4 223.11-4.35 218.88-9.1 218.88-17L218.88-17Q218.88-24.85 223.08-29.6 227.28-34.35 234.33-34.35L234.33-34.35Q241.53-34.35 245.68-29.63ZM226.96-26.18Q224.28-22.8 224.28-17 224.28-11.2 227.03-7.8 229.78-4.4 234.38-4.4L234.38-4.4Q239.13-4.4 241.78-7.75 244.43-11.1 244.43-17L244.43-17Q244.43-22.85 241.76-26.2 239.08-29.55 234.33-29.55L234.33-29.55Q229.63-29.55 226.96-26.18ZM260.93-14.1L260.93 0 255.78 0 255.78-33.7 261.88-33.7 270.18-19.6Q272.48-15.65 274.35-12.3 276.23-8.95 276.93-7.6L276.93-7.6 277.63-6.2Q277.33-10.75 277.33-19.55L277.33-19.55 277.33-33.7 282.48-33.7 282.48 0 276.38 0 268.03-14.05Q265.78-17.85 263.9-21.23 262.03-24.6 261.28-26.1L261.28-26.1 260.53-27.55Q260.93-22.55 260.93-14.1L260.93-14.1ZM295.28-33.7L295.28 0 290.18 0 290.18-33.7 295.28-33.7ZM325.82-4.25L325.82 0 302.02 0 302.02-4.05 319.02-29.45 302.27-29.45 302.27-33.7 325.12-33.7 325.12-29.75 308.07-4.25 325.82-4.25ZM337.67-33.7L337.67 0 332.57 0 332.57-33.7 337.67-33.7ZM350.52-14.1L350.52 0 345.37 0 345.37-33.7 351.47-33.7 359.77-19.6Q362.07-15.65 363.94-12.3 365.82-8.95 366.52-7.6L366.52-7.6 367.22-6.2Q366.92-10.75 366.92-19.55L366.92-19.55 366.92-33.7 372.07-33.7 372.07 0 365.97 0 357.62-14.05Q355.37-17.85 353.49-21.23 351.62-24.6 350.87-26.1L350.87-26.1 350.12-27.55Q350.52-22.55 350.52-14.1L350.52-14.1ZM406.42-3.1L406.47-2.75Q402.12 0.4 395.57 0.4L395.57 0.4Q387.67 0.4 382.84-4.25 378.02-8.9 378.02-16.9L378.02-16.9Q378.02-24.65 382.89-29.48 387.77-34.3 395.27-34.3L395.27-34.3Q401.12-34.3 405.07-32.05L405.07-32.05 405.07-26.75Q400.77-29.45 395.47-29.45L395.47-29.45Q390.07-29.45 386.74-26 383.42-22.55 383.42-16.9L383.42-16.9Q383.42-11.1 386.69-7.75 389.97-4.4 395.72-4.4L395.72-4.4Q398.72-4.4 401.42-5.5L401.42-5.5 401.42-14.8 394.57-14.8 394.57-19.25 406.47-19.25 406.47-3.1 406.42-3.1ZM438.01 0L438.01 0 425.06 0 425.06-33.7 436.11-33.7Q441.41-33.7 444.46-31.23 447.51-28.75 447.51-24.7L447.51-24.7Q447.51-21.9 445.94-19.8 444.36-17.7 441.91-17.1L441.91-17.1Q444.66-16.6 446.54-14.55 448.41-12.5 448.41-9.05L448.41-9.05Q448.41-5.05 445.69-2.53 442.96 0 438.01 0ZM435.71-29.45L435.71-29.45 430.21-29.45 430.21-19.1 434.86-19.1Q438.61-19.1 440.44-20.63 442.26-22.15 442.26-24.6L442.26-24.6Q442.26-26.75 440.64-28.1 439.01-29.45 435.71-29.45ZM436.31-14.9L436.31-14.9 430.21-14.9 430.21-4.25 436.81-4.25Q443.16-4.25 443.16-9.5L443.16-9.5Q443.16-12.05 441.44-13.48 439.71-14.9 436.31-14.9ZM473.56-4.3L473.56 0 454.11 0 454.11-33.7 473.31-33.7 473.31-29.4 459.26-29.4 459.26-19 471.71-19 471.71-14.7 459.26-14.7 459.26-4.3 473.56-4.3ZM487.81-14.25L487.81-14.25 487.26-12.55 498.06-12.55 497.51-14.25Q495.61-20.15 494.41-24.03 493.21-27.9 492.96-28.85L492.96-28.85 492.71-29.8Q492.16-27.45 487.81-14.25ZM485.86-8.25L483.16 0 477.71 0 489.36-33.7 496.11-33.7 507.61 0 502.11 0 499.46-8.25 485.86-8.25ZM537.2-6.85L537.2-1.65Q534.1 0.4 528.6 0.4L528.6 0.4Q521.05 0.4 516.25-4.3 511.45-9 511.45-16.9L511.45-16.9Q511.45-24.55 516.28-29.35 521.1-34.15 528.5-34.15L528.5-34.15Q533.9-34.15 537.15-32.3L537.15-32.3 537.15-27.25Q534.95-28.45 533.18-28.93 531.4-29.4 528.65-29.4L528.65-29.4Q523.6-29.4 520.23-25.98 516.85-22.55 516.85-16.9L516.85-16.9Q516.85-11.15 520.2-7.75 523.55-4.35 529.05-4.35L529.05-4.35Q533.9-4.35 537.2-6.85L537.2-6.85ZM568.5-33.7L568.5 0 563.35 0 563.35-14.75 548.2-14.75 548.2 0 543.05 0 543.05-33.7 548.2-33.7 548.2-19.2 563.35-19.2 563.35-33.7 568.5-33.7ZM600.44 0L600.44 0 587.49 0 587.49-33.7 598.54-33.7Q603.84-33.7 606.89-31.23 609.94-28.75 609.94-24.7L609.94-24.7Q609.94-21.9 608.37-19.8 606.79-17.7 604.34-17.1L604.34-17.1Q607.09-16.6 608.97-14.55 610.84-12.5 610.84-9.05L610.84-9.05Q610.84-5.05 608.12-2.53 605.39 0 600.44 0ZM598.14-29.45L598.14-29.45 592.64-29.45 592.64-19.1 597.29-19.1Q601.04-19.1 602.87-20.63 604.69-22.15 604.69-24.6L604.69-24.6Q604.69-26.75 603.07-28.1 601.44-29.45 598.14-29.45ZM598.74-14.9L598.74-14.9 592.64-14.9 592.64-4.25 599.24-4.25Q605.59-4.25 605.59-9.5L605.59-9.5Q605.59-12.05 603.87-13.48 602.14-14.9 598.74-14.9ZM624.54-14.25L624.54-14.25 623.99-12.55 634.79-12.55 634.24-14.25Q632.34-20.15 631.14-24.03 629.94-27.9 629.69-28.85L629.69-28.85 629.44-29.8Q628.89-27.45 624.54-14.25ZM622.59-8.25L619.89 0 614.44 0 626.09-33.7 632.84-33.7 644.34 0 638.84 0 636.19-8.25 622.59-8.25ZM659.09-29.4L659.09-29.4 654.69-29.4 654.69-17.1 659.34-17.1Q662.54-17.1 664.19-18.78 665.84-20.45 665.84-23.25L665.84-23.25Q665.84-29.4 659.09-29.4ZM654.69-12.8L654.69 0 649.54 0 649.54-33.7 658.94-33.7Q664.74-33.7 667.89-30.88 671.04-28.05 671.04-23.2L671.04-23.2Q670.99-19.65 669.24-17.18 667.49-14.7 664.39-13.6L664.39-13.6 673.19 0 667.04 0 659.14-12.8 654.69-12.8ZM709.03-4.3L709.03 0 689.58 0 689.58-33.7 708.78-33.7 708.78-29.4 694.73-29.4 694.73-19 707.18-19 707.18-14.7 694.73-14.7 694.73-4.3 709.03-4.3ZM727.18-12.65L719.53 0 713.38 0 724.18-17.05 713.98-33.7 719.93-33.7 727.08-21.6 734.13-33.7 740.28-33.7 730.08-17 741.23 0 735.18 0 727.18-12.65ZM756.63-11.95L756.63-11.95 751.83-11.95 751.83 0 746.68 0 746.68-33.7 756.33-33.7Q762.13-33.7 765.53-30.63 768.93-27.55 768.93-22.75 768.93-17.95 765.5-14.95 762.08-11.95 756.63-11.95ZM756.13-29.45L756.13-29.45 751.83-29.45 751.83-16.2 756.23-16.2Q759.88-16.2 761.8-18 763.73-19.8 763.73-22.75L763.73-22.75Q763.73-25.85 761.78-27.65 759.83-29.45 756.13-29.45ZM793.63-4.3L793.63 0 774.18 0 774.18-33.7 793.38-33.7 793.38-29.4 779.33-29.4 779.33-19 791.78-19 791.78-14.7 779.33-14.7 779.33-4.3 793.63-4.3ZM809.42-29.4L809.42-29.4 805.02-29.4 805.02-17.1 809.67-17.1Q812.87-17.1 814.52-18.78 816.17-20.45 816.17-23.25L816.17-23.25Q816.17-29.4 809.42-29.4ZM805.02-12.8L805.02 0 799.87 0 799.87-33.7 809.27-33.7Q815.07-33.7 818.22-30.88 821.37-28.05 821.37-23.2L821.37-23.2Q821.32-19.65 819.57-17.18 817.82-14.7 814.72-13.6L814.72-13.6 823.52 0 817.37 0 809.47-12.8 805.02-12.8ZM833.77-33.7L833.77 0 828.67 0 828.67-33.7 833.77-33.7ZM860.92-4.3L860.92 0 841.47 0 841.47-33.7 860.67-33.7 860.67-29.4 846.62-29.4 846.62-19 859.07-19 859.07-14.7 846.62-14.7 846.62-4.3 860.92-4.3ZM872.32-14.1L872.32 0 867.17 0 867.17-33.7 873.27-33.7 881.57-19.6Q883.87-15.65 885.74-12.3 887.62-8.95 888.32-7.6L888.32-7.6 889.02-6.2Q888.72-10.75 888.72-19.55L888.72-19.55 888.72-33.7 893.87-33.7 893.87 0 887.77 0 879.42-14.05Q877.17-17.85 875.29-21.23 873.42-24.6 872.67-26.1L872.67-26.1 871.92-27.55Q872.32-22.55 872.32-14.1L872.32-14.1ZM925.56-6.85L925.56-1.65Q922.46 0.4 916.96 0.4L916.96 0.4Q909.41 0.4 904.61-4.3 899.81-9 899.81-16.9L899.81-16.9Q899.81-24.55 904.64-29.35 909.46-34.15 916.86-34.15L916.86-34.15Q922.26-34.15 925.51-32.3L925.51-32.3 925.51-27.25Q923.31-28.45 921.54-28.93 919.76-29.4 917.01-29.4L917.01-29.4Q911.96-29.4 908.59-25.98 905.21-22.55 905.21-16.9L905.21-16.9Q905.21-11.15 908.56-7.75 911.91-4.35 917.41-4.35L917.41-4.35Q922.26-4.35 925.56-6.85L925.56-6.85ZM950.86-4.3L950.86 0 931.41 0 931.41-33.7 950.61-33.7 950.61-29.4 936.56-29.4 936.56-19 949.01-19 949.01-14.7 936.56-14.7 936.56-4.3 950.86-4.3Z" opacity="1" transform="matrix(1,0,0,1,0,0)" fill="#ffffff" class="slogan-text-1" data-fill-palette-color="secondary" id="text-1"></path></svg></g></svg></g></svg></g></svg></g><g transform="matrix(1,0,0,1,126.3899436634245,0)"><svg viewBox="0 0 142.74011267315097 142.1267793792281" height="142.1267793792281" width="142.74011267315097"><g><svg xmlns="http://www.w3.org/2000/svg" xmlns:xlink="http://www.w3.org/1999/xlink" version="1.1" x="0" y="0" viewBox="5.431999999999997 5.624 89.13499999999999 88.75200000000001" enable-background="new 0 0 100 100" xml:space="preserve" height="142.1267793792281" width="142.74011267315097" class="icon-icon-0" data-fill-palette-color="accent" id="icon-0"><g fill="#e2b543" data-fill-palette-color="accent"><path fill-rule="evenodd" clip-rule="evenodd" d="M34.664 35.846l-4.884 2.82v5.7l4.884 2.75 4.879-2.761 0.005-5.69L34.664 35.846 34.664 35.846zM63.86 35.846l-4.884 2.82-0.056 5.708 4.94 2.743 4.885-2.75v-5.7L63.86 35.846 63.86 35.846zM49.161 61.248l-4.884 2.68v5.7l4.884 2.75 4.885-2.75v-5.7L49.161 61.248 49.161 61.248zM12.547 70.07l26.888-15.585-0.001-10.066 8.703-5.059L48.15 7.764 44.294 5.71c-12.149 1.686-22.807 8.186-29.818 17.539l0.053 5.701-5.017 2.764c-2.667 5.604-4.08 11.805-4.08 18.326s0.851 12.335 3.27 17.832L12.547 70.07 12.547 70.07zM54.087 94.376c12.944-1.154 24.283-7.889 31.705-17.767l-0.203-4.412L57.971 56.32l-8.81 4.927-8.677-4.899L13.414 72.006l0.059 4.224c7.077 9.285 18.743 16.453 30.835 18.061l4.853-2.774L54.087 94.376 54.087 94.376zM50.203 39.361l8.717 5.009 0.036 10.147 27.519 15.883 4.243-2.277c2.466-5.494 3.849-11.633 3.849-18.084 0-6.612-1.453-12.895-4.245-18.554l-5.075-2.757 0.103-5.672C78.085 13.423 66.869 6.841 54.086 5.624l-3.865 2.121L50.203 39.361 50.203 39.361z" fill="#ffffff" data-fill-palette-color="accent"></path><rect x="39.436" y="44.35" fill-rule="evenodd" clip-rule="evenodd" width="0.107" height="0.124" fill="#ffffff" data-fill-palette-color="accent"></rect><rect x="58.916" y="44.365" fill-rule="evenodd" clip-rule="evenodd" width="0.004" height="0.013" fill="#ffffff" data-fill-palette-color="accent"></rect><rect x="49.159" y="61.242" fill-rule="evenodd" clip-rule="evenodd" width="0.004" height="0.012" fill="#ffffff" data-fill-palette-color="accent"></rect></g></svg></g></svg></g><g></g></svg></g><defs></defs></svg><rect width="373.41334958721444" height="247.2" fill="none" stroke="none" visibility="hidden"></rect></g></svg></g></svg>